HIERARCHY
ROOT pelvis
{
  OFFSET 0 100 0
  CHANNELS 6 Xposition Yposition Zposition Zrotation Xrotation Yrotation
  JOINT pelvis_right_femur
  {
    OFFSET -10.78128 -3.44521 -0.5502486
    CHANNELS 3 Zrotation Xrotation Yrotation
    JOINT right_femur_tibia
    {
      OFFSET -0.8047443 -44.0398 -0.1307829
      CHANNELS 3 Zrotation Xrotation Yrotation
      JOINT right_tibia_foot
      {
        OFFSET 3.006224 -47.83518 -5
        CHANNELS 3 Zrotation Xrotation Yrotation
        End Site
        {
          OFFSET 0 -5 15
        }
      }
    }
  }
  JOINT pelvis_left_femur
  {
    OFFSET 10.78128 -3.44521 -0.5502486
    CHANNELS 3 Zrotation Xrotation Yrotation
    JOINT left_femur_tibia
    {
      OFFSET 0.8047443 -44.0398 -0.1307829
      CHANNELS 3 Zrotation Xrotation Yrotation
      JOINT left_tibia_foot
      {
        OFFSET -4.370144 -48.10324 -4.275266
        CHANNELS 3 Zrotation Xrotation Yrotation
        End Site
        {
          OFFSET 0 -5 15
        }
      }
    }
  }
  JOINT pelvis_spine1
  {
    OFFSET 0 6.468898 -3.129235
    CHANNELS 3 Zrotation Xrotation Yrotation
    JOINT spine1
    {
      OFFSET 0 23.15396 4.99043
      CHANNELS 3 Zrotation Xrotation Yrotation
      JOINT spine2
      {
        OFFSET 0 20.79997 -5.064912
        CHANNELS 3 Zrotation Xrotation Yrotation
        JOINT neck
        {
          OFFSET 0 14.38658 9.616178
          CHANNELS 3 Zrotation Xrotation Yrotation
          End Site
          {
            OFFSET 0 20 0
          }
        }
      }
      JOINT right_manubrium
      {
        OFFSET -5.722621 16.35077 3.967754
        CHANNELS 3 Zrotation Xrotation Yrotation
        JOINT right_clavicle
        {
          OFFSET -13.16364 1.694482 -4.693211
          CHANNELS 3 Zrotation Xrotation Yrotation
          JOINT right_humerus
          {
            OFFSET -28.5034 -0.3100689 -2.792744
            CHANNELS 3 Zrotation Xrotation Yrotation
            JOINT right_radius
            {
              OFFSET -25.15693 0.02248979 -1.271978
              CHANNELS 3 Zrotation Xrotation Yrotation
              End Site
              {
                OFFSET -15 0 0
              }
            }
          }
        }
      }
      JOINT left_manubrium
      {
        OFFSET 5.722621 16.35077 3.967754
        CHANNELS 3 Zrotation Xrotation Yrotation
        JOINT left_clavicle
        {
          OFFSET 13.16364 1.694482 -4.693211
          CHANNELS 3 Zrotation Xrotation Yrotation
          JOINT left_humerus
          {
            OFFSET 29.39168 -1.063119 -2.237045
            CHANNELS 3 Zrotation Xrotation Yrotation
            JOINT left_radius
            {
              OFFSET 24.59957 -0.9528479 0.9047498
              CHANNELS 3 Zrotation Xrotation Yrotation
              End Site
              {
                OFFSET 15 -0 -0
              }
            }
          }
        }
      }
    }
  }
}
MOTION
Frames: 9
Frame Time: 0.0416666666667
-1698.818 92.61676 1373.33 -1.465221 1.208771 -103.7919 5.897321 -24.90804 3.100162 -0 12.52269 -0 -4.274356 1.459087 -5.928489 -3.998898 17.61488 -7.213105 -0 36.17433 -0 -5.011789 -12.64931 11.35679 -1.574329 -1.226095 7.169268 0.1658971 10.34167 -5.310258 0.5193935 21.83539 6.411574 3.323003 -21.78819 6.72502 4.161982 -20.20194 11.58507 82.80188 34.78573 -12.35632 -0 0 17.56764 -19.46203 10.33525 11.60396 4.949611 -19.97256 -2.031493 -92.13131 22.91216 24.08163 0 0 -14.81062 4.871922 10.79469 9.124678
-1706.075 94.22693 1370.983 -1.342228 2.059403 -104.1856 8.027562 -20.93202 4.527689 -0 13.3879 -0 -5.553815 2.066341 -5.58229 -3.496031 13.87344 -5.774663 -0 50.0119 -0 -3.488805 -7.618942 11.86281 -1.529241 -0.9042702 7.393859 0.2108085 10.47497 -5.368384 0.5305892 21.65521 6.198884 3.187037 -21.39252 6.258454 4.139147 -20.22796 11.81427 82.09291 34.4377 -11.736 -0 0 17.84368 -20.7626 11.01823 12.49176 4.513378 -19.87877 -2.202273 -91.31816 23.45243 23.4679 0 0 -16.62601 3.189417 9.707828 11.2825
-1713.057 95.66449 1368.648 -4.572208 2.458895 -104.8787 7.658588 -15.58474 4.069148 -0 13.00459 -0 -6.095007 1.574157 -6.363282 -3.232172 10.94006 -5.183447 -0 55.19852 -0 -2.664563 -6.380168 13.9767 -1.612996 -0.7426364 7.572886 0.1235044 10.446 -5.104934 0.5871156 21.69413 6.041257 3.059527 -20.96187 6.080461 3.986955 -20.37704 11.88955 81.29361 34.06781 -10.42217 -0 0 18.38938 -21.68879 11.1345 13.21563 4.241495 -19.44319 -2.234346 -91.10655 23.13951 23.45862 0 0 -16.41147 2.677154 9.265972 11.71024
-1719.416 96.98621 1366.429 -7.58348 2.729764 -105.7258 6.965016 -9.875311 3.134606 -0 12.43022 -0 -7.216349 0.1786195 -6.487784 -2.776907 6.666467 -5.176594 -0 55.29755 -0 -1.717982 -6.153529 16.09163 -1.636986 -0.5840326 7.807604 0.05198575 10.38358 -4.886204 0.6445313 21.6853 5.895303 2.91148 -20.6618 5.938281 3.796209 -20.57446 11.96191 80.54119 33.84054 -9.258634 -0 0 18.97204 -22.57584 11.41757 13.86158 3.982345 -19.05538 -2.231878 -90.91525 23.04636 23.57126 0 0 -16.68829 2.086831 8.888242 12.38257
-1725.181 98.08918 1364.364 -9.549264 2.959478 -106.6643 6.448768 -4.515029 2.470975 -0 11.9717 -0 -8.317757 -1.87551 -6.171518 -2.1094 1.623647 -5.254521 -0 52.98631 -0 -0.9980689 -5.962571 17.69421 -1.663462 -0.4228406 8.0989 -0.03038952 10.2982 -4.617603 0.7422786 21.65937 5.718692 2.729386 -20.31448 5.820214 3.570216 -20.82866 12.03128 79.64571 33.50745 -7.893296 -0 0 19.73934 -23.55226 11.78298 14.53775 3.702609 -18.55659 -2.208873 -90.77814 22.91309 23.78522 0 0 -16.90595 1.426518 8.514623 13.10663
-1730.539 98.79258 1362.432 -10.70001 3.120049 -107.6252 5.944723 0.319203 2.336234 -0 11.67901 -0 -8.62345 -4.530267 -5.906994 -1.347196 -3.280255 -5.212253 -0 48.10544 -0 -0.8643828 -6.075125 19.0838 -1.788586 -0.3381983 8.318822 -0.1273299 10.23716 -4.274685 0.8827669 21.69114 5.486794 2.537425 -19.77121 5.720291 3.386832 -21.07099 12.06394 78.77261 32.65627 -6.405478 -0 0 20.6466 -24.27727 11.76739 15.12862 3.465453 -17.92517 -2.217211 -90.81965 22.4781 23.97652 0 0 -16.17921 0.9043555 8.16566 13.36624
-1735.706 99.0657 1360.589 -11.14978 3.213495 -108.5782 5.420477 4.414063 2.755825 -0 11.71516 -0 -8.003864 -7.463142 -5.827543 -0.6888818 -7.451188 -5.090977 -0 41.97542 -0 -1.232129 -6.508173 20.40363 -1.933334 -0.3112218 8.433689 -0.2275972 10.167 -3.941682 1.020502 21.77516 5.262748 2.373396 -19.22962 5.65287 3.233737 -21.26021 12.05133 78.15011 31.67244 -5.146834 -0 0 21.44561 -24.63561 11.46281 15.54579 3.319183 -17.33216 -2.228361 -90.99595 22.0333 24.14306 0 0 -15.05327 0.5546497 7.965642 13.33491
-1740.842 98.97002 1358.805 -11.08361 3.209532 -109.4987 4.804782 7.818156 3.439669 -0 12.35364 -0 -6.816673 -10.31825 -5.779829 -0.2935387 -10.81659 -5.044701 -0 35.68695 -0 -1.794483 -7.17943 21.59425 -2.046342 -0.3042263 8.472552 -0.32283 10.07774 -3.659472 1.132743 21.8807 5.09143 2.256009 -18.81451 5.623719 3.099324 -21.39769 12.01125 77.76408 30.88678 -4.187222 -0 0 22.03451 -24.76843 11.09592 15.82746 3.246597 -16.85429 -2.219818 -91.22272 21.7158 24.30802 0 0 -13.97783 0.3528672 7.931194 13.20293
-1746.059 98.62898 1357.081 -10.61831 3.066966 -110.3547 4.060068 10.64516 4.036714 -0 13.88426 -0 -5.517671 -12.63941 -5.527324 -0.2327757 -13.52537 -5.184279 -0 29.75015 -0 -2.236797 -7.91613 22.47306 -2.125442 -0.2926854 8.460108 -0.3836545 10.01753 -3.479852 1.21642 21.97163 4.985271 2.195079 -18.50633 5.613023 3.0334 -21.43774 11.97358 77.58445 30.32233 -3.642083 -0 0 22.34387 -24.78291 10.82527 15.95395 3.221773 -16.5555 -2.227777 -91.39403 21.54289 24.35773 0 0 -13.18002 0.2134369 7.943353 13.11127
